<svg width="98" height="98" viewBox="0 0 98 98" fill="none" xmlns="http://www.w3.org/2000/svg">
<rect width="98" height="98" rx="49" fill="url(#paint0_linear_180_5902)"/>
<path d="M27.0868 33.0539C26.757 32.8012 26.5805 32.5063 26.5221 32.158C26.4611 31.7939 26.5258 31.4646 26.722 31.1474L26.722 31.1475L26.7247 31.1431C31.8303 22.7001 39.2014 18.5 48.8919 18.5C51.4233 18.5 53.9766 18.9876 56.5541 19.9688C59.1377 20.9524 61.4622 22.2674 63.5303 23.9131C65.5867 25.5495 67.2645 27.556 68.5646 29.9372C69.857 32.3046 70.5 34.7816 70.5 37.375C70.5 39.0701 70.2555 40.6473 69.7706 42.1098C69.2763 43.6007 68.7253 44.7918 68.1244 45.6959C67.5245 46.5986 66.6676 47.5248 65.5408 48.4719C64.395 49.4351 63.4842 50.1186 62.802 50.5349C62.0956 50.9661 61.1119 51.5356 59.8484 52.2446C58.4427 53.029 57.2727 54.1359 56.3387 55.5548C55.4369 56.9247 54.9172 58.112 54.9172 59.075C54.9172 59.4959 54.7706 59.9151 54.4383 60.3421C54.1202 60.7508 53.8003 60.9 53.4693 60.9H41.7822C41.5445 60.9 41.2676 60.7694 40.9748 60.2561C40.6716 59.7249 40.5292 59.204 40.5292 58.6875V56.5078C40.5292 53.972 41.5234 51.5593 43.5681 49.2596C45.6379 46.9315 47.9032 45.2258 50.3618 44.1285L50.3618 44.1285L50.3651 44.1269C52.3064 43.2433 53.7457 42.3029 54.6263 41.2868C55.5334 40.2403 55.9659 38.888 55.9659 37.2781C55.9659 35.7024 55.0775 34.372 53.4839 33.2812C51.8843 32.1861 50.0391 31.6437 47.9667 31.6437C45.7826 31.6437 43.9261 32.1289 42.4289 33.1332L42.4288 33.1331L42.4179 33.1408C41.2176 33.9936 39.4415 35.9033 37.1085 38.8039C36.7667 39.2218 36.3988 39.3937 35.9874 39.3937C35.7169 39.3937 35.4073 39.3063 35.0515 39.0922L27.0876 33.0545C27.0873 33.0543 27.0871 33.0541 27.0868 33.0539ZM55.112 66.4375V78.0625C55.112 78.437 54.9769 78.764 54.675 79.0643C54.3731 79.3645 54.0432 79.5 53.6641 79.5H41.977C41.598 79.5 41.268 79.3645 40.9661 79.0643L40.6135 79.4187L40.9661 79.0643C40.6643 78.764 40.5292 78.437 40.5292 78.0625V66.4375C40.5292 66.063 40.6643 65.736 40.9661 65.4357C41.268 65.1355 41.598 65 41.977 65H53.6641C54.0432 65 54.3731 65.1355 54.675 65.4357C54.9769 65.736 55.112 66.063 55.112 66.4375Z" fill="url(#paint1_linear_180_5902)" stroke="#BCBDBF"/>
<defs>
<linearGradient id="paint0_linear_180_5902" x1="49" y1="0" x2="49" y2="98" gradientUnits="userSpaceOnUse">
<stop stop-color="#9CF7CA"/>
<stop offset="1" stop-color="#52FAA7"/>
</linearGradient>
<linearGradient id="paint1_linear_180_5902" x1="48.5" y1="18" x2="48.5" y2="80" gradientUnits="userSpaceOnUse">
<stop stop-color="#FCFDFF"/>
<stop offset="1" stop-color="#E5E5E5"/>
</linearGradient>
</defs>
</svg>
