<svg width="42" height="42" viewBox="0 0 42 42" fill="none" xmlns="http://www.w3.org/2000/svg">
<rect width="42" height="42" rx="4" fill="#32D483"/>
<path d="M13.4565 11.6679C13.4561 12.3751 13.1683 13.0532 12.6564 13.553C12.1445 14.0528 11.4504 14.3334 10.7269 14.333C10.0033 14.3327 9.3095 14.0514 8.79811 13.5511C8.28673 13.0508 7.99964 12.3724 8 11.6652C8.00036 10.958 8.28815 10.2799 8.80004 9.78006C9.31194 9.28024 10.006 8.99965 10.7296 9C11.4532 9.00035 12.147 9.28163 12.6583 9.78195C13.1697 10.2823 13.4568 10.9606 13.4565 11.6679ZM13.5383 16.3076H8.08185V33H13.5383V16.3076ZM22.1595 16.3076H16.7303V33H22.1049V24.2405C22.1049 19.3608 28.6118 18.9075 28.6118 24.2405V33H34V22.4273C34 14.201 24.3694 14.5077 22.1049 18.5475L22.1595 16.3076Z" fill="white"/>
</svg>
